<?xml version="1.0" encoding="utf-8"?>
<!-- Generator: Adobe Illustrator 18.0.0, SVG Export Plug-In . SVG Version: 6.00 Build 0)  -->
<!DOCTYPE svg PUBLIC "-//W3C//DTD SVG 1.1//EN" "http://www.w3.org/Graphics/SVG/1.1/DTD/svg11.dtd">


<svg version="1.1" xmlns="http://www.w3.org/2000/svg" xmlns:xlink="http://www.w3.org/1999/xlink" x="0px" y="0px"
	 viewBox="0 0 500 500" enable-background="new 0 0 500 500" xml:space="preserve">
	<g id="bg"></g>
	<g id="M">
		<path fill="#0071BC" d="M121.1,191.3L121.1,191.3L236,297.1l-27.4,29.8l-85.1-78.3C107,233.4,106,207.8,121.1,191.3z"/>
		<path fill="#FF914D" d="M128.9,184.1L128.9,184.1c15.1-16.4,40.7-17.5,57.2-2.4l123.3,113.5h0c-15.1,16.4-40.7,17.5-57.2,2.4
			L128.9,184.1z"/>
		<path fill="#0071BC" d="M346.1,177.4L346.1,177.4L208.5,326.8l-29.8-27.4l110.2-119.7C304,163.3,329.7,162.3,346.1,177.4z"/>
		<path fill="#0071BC" d="M318.5,166.6L318.5,166.6c22.4,0,40.5,18.1,40.5,40.5l-0.1,116c0,22.4-18.1,40.5-40.5,40.5h0L318.5,166.6z"
			/>
		<path fill="#FF914D" d="M381,157.8L381,157.8c16.4,15.1,17.5,40.7,2.4,57.2L282.1,325.1l-29.8-27.4L381,157.8z"/>
	</g>
	<g id="V"></g>
</svg>
